<svg width="60" height="60" viewBox="0 0 60 60" fill="none" xmlns="http://www.w3.org/2000/svg">
<rect width="60" height="60" fill="#97AAC6"/>
<path d="M15.5 2.5C23.232 2.5 29.5 8.76801 29.5 16.5C29.5 24.232 23.232 30.5 15.5 30.5C7.76801 30.5 1.5 24.232 1.5 16.5C1.5 8.76801 7.76801 2.5 15.5 2.5Z" stroke="white"/>
<path d="M45 3.5C52.4558 3.5 58.5 9.54416 58.5 17C58.5 24.4558 52.4558 30.5 45 30.5C37.5442 30.5 31.5 24.4558 31.5 17C31.5 9.54416 37.5442 3.5 45 3.5Z" stroke="white"/>
<path d="M17 31.5C24.4558 31.5 30.5 37.5442 30.5 45C30.5 52.4558 24.4558 58.5 17 58.5C9.54416 58.5 3.5 52.4558 3.5 45C3.5 37.5442 9.54416 31.5 17 31.5Z" stroke="white"/>
<path d="M45 59C52.732 59 59 52.732 59 45C59 37.268 52.732 31 45 31C37.268 31 31 37.268 31 45C31 52.732 37.268 59 45 59Z" fill="white"/>
</svg>
