<svg width="60" height="60" viewBox="0 0 60 60" fill="none" xmlns="http://www.w3.org/2000/svg">
<rect width="60" height="60" fill="#97AAC6"/>
<path d="M15.5 31C23.5081 31 30 24.5081 30 16.5C30 8.49187 23.5081 2 15.5 2C7.49187 2 1 8.49187 1 16.5C1 24.5081 7.49187 31 15.5 31Z" fill="white"/>
<path d="M45 3.5C52.4558 3.5 58.5 9.54416 58.5 17C58.5 24.4558 52.4558 30.5 45 30.5C37.5442 30.5 31.5 24.4558 31.5 17C31.5 9.54416 37.5442 3.5 45 3.5Z" stroke="white"/>
<path d="M17 31.5C24.4558 31.5 30.5 37.5442 30.5 45C30.5 52.4558 24.4558 58.5 17 58.5C9.54416 58.5 3.5 52.4558 3.5 45C3.5 37.5442 9.54416 31.5 17 31.5Z" stroke="white"/>
<path d="M45 31.5C52.4558 31.5 58.5 37.5442 58.5 45C58.5 52.4558 52.4558 58.5 45 58.5C37.5442 58.5 31.5 52.4558 31.5 45C31.5 37.5442 37.5442 31.5 45 31.5Z" stroke="white"/>
</svg>
