<svg width="135" height="128" viewBox="0 0 135 128" fill="none" xmlns="http://www.w3.org/2000/svg">
<path d="M62.2539 56.9956C87.1117 38.5937 104.746 20.2476 101.64 16.0185C98.5353 11.7894 75.8668 23.2786 51.009 41.6805C26.1512 60.0823 8.51726 78.4284 11.6225 82.6575C14.7277 86.8867 37.3961 75.3974 62.2539 56.9956Z" stroke="#828282" stroke-opacity="0.11" stroke-miterlimit="10"/>
<path d="M56.2539 48.9956C81.1117 30.5937 98.7456 12.2476 95.6404 8.01848C92.5352 3.78933 69.8668 15.2786 45.009 33.6805C20.1512 52.0823 2.51726 70.4284 5.62246 74.6575C8.72766 78.8867 31.3961 67.3974 56.2539 48.9956Z" stroke="#828282" stroke-opacity="0.11" stroke-miterlimit="10"/>
<path d="M90.2539 94.9956C115.112 76.5937 132.746 58.2476 129.64 54.0185C126.535 49.7894 103.867 61.2786 79.009 79.6805C54.1512 98.0823 36.5173 116.428 39.6225 120.658C42.7277 124.887 65.3961 113.397 90.2539 94.9956Z" stroke="#828282" stroke-opacity="0.11" stroke-miterlimit="10"/>
<path d="M84.2539 86.9956C109.112 68.5937 126.746 50.2476 123.64 46.0185C120.535 41.7894 97.8668 53.2786 73.009 71.6805C48.1512 90.0823 30.5173 108.428 33.6225 112.658C36.7277 116.887 59.3961 105.397 84.2539 86.9956Z" stroke="#828282" stroke-opacity="0.11" stroke-miterlimit="10"/>
<path d="M78.2539 79.9956C103.112 61.5937 120.746 43.2476 117.64 39.0185C114.535 34.7894 91.8668 46.2786 67.009 64.6805C42.1512 83.0823 24.5173 101.428 27.6225 105.658C30.7277 109.887 53.3961 98.3974 78.2539 79.9956Z" stroke="#828282" stroke-opacity="0.11" stroke-miterlimit="10"/>
<path d="M73.2539 71.9956C98.1117 53.5937 115.746 35.2476 112.64 31.0185C109.535 26.7894 86.8668 38.2786 62.009 56.6805C37.1512 75.0823 19.5173 93.4284 22.6225 97.6575C25.7277 101.887 48.3961 90.3974 73.2539 71.9956Z" stroke="#828282" stroke-opacity="0.11" stroke-miterlimit="10"/>
<path d="M67.2539 63.9956C92.1117 45.5937 109.746 27.2476 106.64 23.0185C103.535 18.7894 80.8668 30.2786 56.009 48.6805C31.1512 67.0823 13.5173 85.4284 16.6225 89.6575C19.7277 93.8867 42.3961 82.3974 67.2539 63.9956Z" stroke="#828282" stroke-opacity="0.11" stroke-miterlimit="10"/>
</svg>
